<svg xmlns="http://www.w3.org/2000/svg" xmlns:xlink="http://www.w3.org/1999/xlink" version="1.1" x="0px" y="0px" viewBox="0 0 100 125" style="enable-background:new 0 0 100 100;" xml:space="preserve"><path d="M53.4,51.4c0,11.1,8.8,24.7,8.8,24.7s-11.8-5.7-15.8,2.2S49,99.5,49,99.5c-31-32.5-3.1-39.7,3.2-32.9  c-10.3-16-15.9-24.1-15.9-24.1c1.7-1.5,9.2-6.9,10.7-17.1c1.7-11.6-5-19.5-6.7-22.5c2-1.8,2.9-2.5,2.9-2.5s14.6,20.2,22.3,31  C65.4,31.5,53.4,40.3,53.4,51.4z"/><text x="0" y="115" fill="#000000" font-size="5px" font-weight="bold" font-family="'Helvetica Neue', Helvetica, Arial-Unicode, Arial, Sans-serif">Created by Vasily Gedzun</text><text x="0" y="120" fill="#000000" font-size="5px" font-weight="bold" font-family="'Helvetica Neue', Helvetica, Arial-Unicode, Arial, Sans-serif">from the Noun Project</text></svg>