<svg xmlns="http://www.w3.org/2000/svg" xmlns:xlink="http://www.w3.org/1999/xlink" version="1.1" x="0px" y="0px" viewBox="0 0 7200 9000" enable-background="new 0 0 7200 7200" xml:space="preserve"><path d="M5225.287,601.886c-614.986-128.004-472.293,1271.209-1757.328,1218.164c89.865-168.64,140.941-361.042,140.941-565.446  c0-665.175-539.234-1204.387-1204.387-1204.387c-665.15,0-1204.387,539.211-1204.387,1204.387  c0,542.403,358.619,1000.943,851.65,1151.774c615.369,262.896,1501.846,179.729,2097.055,58.182  c-233.398,1562.26-1550.283,4559.834-891.492,4633.305c274.154,30.578,327.703,23.258,464.203-444.475  c493.008-1689.305,1142.293-3791.977,1488.334-5100.414C5353.244,1010.885,5508.875,660.907,5225.287,601.886z"/><text x="0" y="7215" fill="#000000" font-size="5px" font-weight="bold" font-family="'Helvetica Neue', Helvetica, Arial-Unicode, Arial, Sans-serif">Created by Fiona Yeung</text><text x="0" y="7220" fill="#000000" font-size="5px" font-weight="bold" font-family="'Helvetica Neue', Helvetica, Arial-Unicode, Arial, Sans-serif">from the Noun Project</text></svg>