<svg version="1.0" xmlns="http://www.w3.org/2000/svg"
 width="1024pt" height="1024pt" viewBox="0 0 1024 1024"
 preserveAspectRatio="xMidYMid meet">
<g transform="translate(0,1024) scale(0.1,-0.1)"
fill="#ffffff" stroke="none">
<path d="M4970 7169 c-741 -84 -1354 -637 -1509 -1359 -104 -489 0 -983 289
-1365 67 -89 217 -242 294 -300 l39 -29 35 39 c19 22 52 64 75 93 l40 53 -105
107 c-235 241 -352 459 -415 777 -27 137 -25 437 4 567 73 322 220 574 461
784 279 244 586 368 964 390 333 18 715 -90 989 -281 l77 -54 24 27 c43 47
119 162 114 171 -12 19 -207 142 -301 188 -196 98 -364 150 -590 184 -138 20
-347 24 -485 8z"/>
<path d="M5046 6789 c-474 -50 -881 -331 -1093 -754 -93 -185 -136 -370 -136
-585 0 -163 18 -278 63 -420 32 -98 123 -276 182 -355 69 -93 254 -277 275
-273 9 2 45 38 81 80 l64 78 -94 101 c-202 218 -291 397 -324 653 -43 329 69
657 304 895 178 178 365 281 607 332 115 24 359 26 467 4 158 -33 343 -112
480 -206 l57 -39 24 33 c67 90 107 147 107 151 0 3 -44 34 -98 70 -287 191
-618 272 -966 235z"/>
<path d="M5110 6428 c-438 -35 -803 -357 -892 -788 -30 -144 -22 -328 22 -470
37 -122 90 -226 166 -326 56 -73 146 -164 163 -164 15 0 141 143 141 160 0 9
-18 34 -41 55 -47 46 -117 142 -148 202 -77 154 -102 364 -62 523 25 102 75
208 132 279 101 126 277 239 444 282 110 29 280 29 388 0 89 -23 224 -84 292
-131 26 -18 50 -28 54 -23 65 93 111 164 111 173 0 18 -167 121 -256 156 -47
19 -115 42 -152 51 -85 20 -252 30 -362 21z"/>
<path d="M5900 4843 l-55 -58 56 53 c30 29 59 49 64 45 4 -5 5 -2 1 5 -4 6 -8
12 -9 12 -2 0 -27 -26 -57 -57z"/>
<path d="M4684 4588 c-65 -84 -179 -227 -254 -318 -193 -233 -203 -247 -196
-259 27 -44 352 -191 372 -168 6 7 34 71 63 142 72 178 127 310 212 508 39 93
70 169 68 171 -11 8 -138 76 -142 76 -3 0 -59 -69 -123 -152z"/>
<path d="M5980 4618 c97 -100 110 -113 110 -105 0 1 -48 50 -107 107 l-108
105 105 -107z"/>
<path d="M5716 4702 c-2 -4 4 -8 14 -8 10 0 16 4 14 8 -3 4 -9 8 -14 8 -5 0
-11 -4 -14 -8z"/>
<path d="M5780 4640 c12 -16 24 -30 26 -30 3 0 -4 14 -16 30 -12 17 -24 30
-26 30 -3 0 4 -13 16 -30z"/>
<path d="M5603 4650 c-34 -14 -28 -21 7 -9 17 6 30 13 30 15 0 6 -12 4 -37 -6z"/>
<path d="M5016 4473 c-27 -81 -90 -266 -141 -411 -51 -144 -89 -264 -86 -267
33 -20 263 -41 402 -36 14 1 17 39 23 324 3 177 9 365 13 418 l6 96 -49 6
c-27 4 -65 9 -84 13 l-35 6 -49 -149z"/>
<path d="M5498 4562 c9 -34 18 -59 20 -57 6 6 -19 97 -29 109 -4 5 0 -19 9
-52z"/>
<path d="M5590 4611 c0 -6 4 -13 10 -16 6 -3 7 1 4 9 -7 18 -14 21 -14 7z"/>
<path d="M5428 4603 c6 -2 18 -2 25 0 6 3 1 5 -13 5 -14 0 -19 -2 -12 -5z"/>
<path d="M5319 4593 c-1 -5 -1 -15 0 -23 27 -389 51 -744 51 -764 0 -22 4 -26
31 -26 35 0 172 30 166 36 -2 3 -33 -2 -68 -11 -35 -8 -76 -15 -91 -15 -27 0
-28 1 -26 53 l2 52 3 -47 c4 -42 7 -48 27 -48 26 0 80 45 72 59 -4 5 0 12 6
14 8 3 6 6 -5 6 -10 1 -16 5 -13 10 4 5 0 12 -6 15 -10 5 -10 7 0 12 6 3 12
13 12 21 0 9 -3 13 -7 10 -10 -11 -33 50 -33 87 0 17 -7 42 -16 54 -12 17 -12
22 -2 22 8 0 9 3 3 8 -14 10 -17 32 -4 32 5 0 7 5 3 12 -9 14 -17 62 -17 100
0 17 -4 25 -11 21 -8 -5 -8 -3 0 8 15 20 16 61 1 52 -7 -4 -6 0 2 10 9 11 10
17 2 17 -6 0 -11 9 -11 19 0 11 -4 21 -9 23 -4 2 -12 14 -16 28 -7 23 -7 24
10 10 17 -14 18 -13 13 7 -3 12 -1 24 6 27 7 3 4 11 -9 22 -16 14 -17 16 -3
11 16 -6 17 -3 5 26 -8 18 -21 33 -30 35 -13 3 -17 -7 -20 -50 l-3 -53 -2 57
-2 57 38 4 37 4 -42 1 c-24 1 -44 -1 -44 -5z m34 -207 c3 -42 1 -63 -4 -55 -5
8 -8 43 -8 79 1 79 6 69 12 -24z m4 -158 c-2 -18 -4 -6 -4 27 0 33 2 48 4 33
2 -15 2 -42 0 -60z m20 -263 c0 -53 -1 -51 -8 25 -4 47 -7 112 -6 145 0 53 1
51 8 -25 4 -47 7 -112 6 -145z"/>
<path d="M5825 4580 c10 -11 20 -20 23 -20 3 0 -3 9 -13 20 -10 11 -20 20 -23
20 -3 0 3 -9 13 -20z"/>
<path d="M6497 4551 c-4 -17 -3 -21 5 -13 5 5 8 16 6 23 -3 8 -7 3 -11 -10z"/>
<path d="M5865 4530 c10 -11 20 -20 23 -20 3 0 -3 9 -13 20 -10 11 -20 20 -23
20 -3 0 3 -9 13 -20z"/>
<path d="M5630 4525 c0 -5 5 -17 10 -25 5 -8 10 -10 10 -5 0 6 -5 17 -10 25
-5 8 -10 11 -10 5z"/>
<path d="M5914 4467 c16 -20 30 -37 33 -37 7 0 -36 58 -49 66 -7 4 1 -9 16
-29z"/>
<path d="M5526 4465 c2 -16 13 -57 24 -90 11 -33 17 -46 14 -30 -2 17 -13 57
-24 90 -11 33 -17 47 -14 30z"/>
<path d="M6190 4395 c52 -52 97 -95 100 -95 2 0 -38 43 -90 95 -52 52 -97 95
-100 95 -2 0 38 -43 90 -95z"/>
<path d="M5650 4475 c0 -5 5 -17 10 -25 5 -8 10 -10 10 -5 0 6 -5 17 -10 25
-5 8 -10 11 -10 5z"/>
<path d="M5670 4425 c0 -5 5 -17 10 -25 5 -8 10 -10 10 -5 0 6 -5 17 -10 25
-5 8 -10 11 -10 5z"/>
<path d="M5965 4400 c10 -11 20 -20 23 -20 3 0 -3 9 -13 20 -10 11 -20 20 -23
20 -3 0 3 -9 13 -20z"/>
<path d="M6005 4350 c10 -11 20 -20 23 -20 3 0 -3 9 -13 20 -10 11 -20 20 -23
20 -3 0 3 -9 13 -20z"/>
<path d="M6329 4323 l-34 -38 38 34 c34 33 42 41 34 41 -2 0 -19 -17 -38 -37z"/>
<path d="M6050 4295 c13 -14 26 -25 28 -25 3 0 -5 11 -18 25 -13 14 -26 25
-28 25 -3 0 5 -11 18 -25z"/>
<path d="M5571 4300 c0 -8 4 -24 9 -35 5 -13 9 -14 9 -5 0 8 -4 24 -9 35 -5
13 -9 14 -9 5z"/>
<path d="M5720 4305 c0 -5 5 -17 10 -25 5 -8 10 -10 10 -5 0 6 -5 17 -10 25
-5 8 -10 11 -10 5z"/>
<path d="M5740 4255 c0 -5 5 -17 10 -25 5 -8 10 -10 10 -5 0 6 -5 17 -10 25
-5 8 -10 11 -10 5z"/>
<path d="M6100 4235 c13 -14 26 -25 28 -25 3 0 -5 11 -18 25 -13 14 -26 25
-28 25 -3 0 5 -11 18 -25z"/>
<path d="M5591 4230 c0 -8 4 -24 9 -35 5 -13 9 -14 9 -5 0 8 -4 24 -9 35 -5
13 -9 14 -9 5z"/>
<path d="M5760 4205 c0 -5 5 -17 10 -25 5 -8 10 -10 10 -5 0 6 -5 17 -10 25
-5 8 -10 11 -10 5z"/>
<path d="M6130 4196 c0 -2 8 -10 18 -17 15 -13 16 -12 3 4 -13 16 -21 21 -21
13z"/>
<path d="M5612 4160 c0 -8 6 -31 13 -50 7 -19 13 -28 13 -20 0 8 -6 31 -13 50
-7 19 -13 28 -13 20z"/>
<path d="M5780 4155 c0 -5 5 -17 10 -25 5 -8 10 -10 10 -5 0 6 -5 17 -10 25
-5 8 -10 11 -10 5z"/>
<path d="M6144 4138 l-19 -23 23 19 c21 18 27 26 19 26 -2 0 -12 -10 -23 -22z"/>
<path d="M6094 4098 l-19 -23 23 19 c12 11 22 21 22 23 0 8 -8 2 -26 -19z"/>
<path d="M5810 4085 c0 -5 5 -17 10 -25 5 -8 10 -10 10 -5 0 6 -5 17 -10 25
-5 8 -10 11 -10 5z"/>
<path d="M5641 4060 c0 -8 4 -24 9 -35 5 -13 9 -14 9 -5 0 8 -4 24 -9 35 -5
13 -9 14 -9 5z"/>
<path d="M5671 3964 c-1 -15 30 -106 35 -101 2 2 -5 28 -15 58 -11 30 -20 49
-20 43z"/>
<path d="M5867 3958 c2 -5 10 -8 18 -8 8 0 16 3 18 8 3 4 -5 7 -18 7 -13 0
-21 -3 -18 -7z"/>
<path d="M5625 3839 c-27 -10 -37 -17 -21 -14 31 7 97 33 81 33 -5 0 -32 -8
-60 -19z"/>
</g>
</svg>
